# xmcd
#
# Track frame offsets:
#	150
#	14366
#	31255
#	53365
#	72381
#	92181
#	109132
#	123041
#	137573
#	153091
#	171137
#	183318
#	200150
#	202857
#	222598
#	236453
#	254868
#
# Disc length: 3629 seconds
#
# Revision: 0
# Processed by: cddbd v1.5.2PL0 Copyright (c) Steve Scherf et al.
# Submitted via: EasyCDDAExtractor 2010.4.0.0
#
DISCID=ec0e2b11
DTITLE=Big Moe - Moe Life...
DYEAR=2003
DGENRE=Rap
TTITLE0=Noke N Moe Live
TTITLE1=Hell Yeah! (Ft. D-Reck, Tyte Eyez)
TTITLE2=Throwedsville (Ft. A3, Dirty $)
TTITLE3=Just A Dog
TTITLE4=Shorty (Ft. Tyte Eyez, A3, Mafia Mike, Noke-D)
TTITLE5=Yessir (Ft. T2)
TTITLE6=Big Dude's (Ft. Noke-D, Big Toon, D-Gotti)
TTITLE7=My Girl (Ft. D-Gotti, Dirty $)
TTITLE8=Every Body (Ft. D-Gotti)
TTITLE9=Move Around (Ft. Noke-D, Mr. 3-2)
TTITLE10=Moe Life (Ft. Noke-D, Toya)
TTITLE11=Leave Drank Alone (Ft. Mike Wilson)
TTITLE12=Interview (Skit)
TTITLE13=Ride With Us (Ft. D-Reck, Tyte Eyez, D-Gotti, Dirty $, Toya)
TTITLE14=Roll Candy Red (Ft. Noke-D, Killa Milla)
TTITLE15=Get Lonely Too (Ft. Mike Wilson, Noke-D)
TTITLE16=My Life #2
EXTD=YEAR: 2003\n
EXTT0=
EXTT1=
EXTT2=
EXTT3=
EXTT4=
EXTT5=
EXTT6=
EXTT7=
EXTT8=
EXTT9=
EXTT10=
EXTT11=
EXTT12=
EXTT13=
EXTT14=
EXTT15=
EXTT16=
PLAYORDER=
